{
  "accessors": [
    {
      "bufferView": 1,
      "componentType": 5126,
      "count": 312,
      "max": [
        0.7673310041427612,
        0.25695499777793884,
        0.288349986076355
      ],
      "min": [
        -0.7153369784355164,
        -0.3469829857349396,
        -0.2772510051727295
      ],
      "type": "VEC3"
    },
    {
      "bufferView": 1,
      "byteOffset": 3744,
      "componentType": 5126,
      "count": 312,
      "max": [
        0.7868309617042542,
        0.2752891778945923,
        0.9983912706375122
      ],
      "min": [
        -0.7868309617042542,
        -0.9999874830245972,
        -0.9969740509986877
      ],
      "type": "VEC3"
    },
    {
      "bufferView": 0,
      "componentType": 5125,
      "count": 1716,
      "type": "SCALAR"
    }
  ],
  "asset": {
    "extras": {
      "author": "Tony (https://sketchfab.com/TonySv)",
      "license": "CC-BY-4.0 (http://creativecommons.org/licenses/by/4.0/)",
      "source": "https://sketchfab.com/3d-models/mouth-de53c20ea20c4839bbac6049bd2b2d53",
      "title": "Mouth"
    },
    "generator": "Sketchfab-13.23.0",
    "version": "2.0"
  },
  "bufferViews": [
    {
      "buffer": 0,
      "byteLength": 6864,
      "name": "floatBufferViews",
      "target": 34963
    },
    {
      "buffer": 0,
      "byteLength": 7488,
      "byteOffset": 6864,
      "byteStride": 12,
      "name": "floatBufferViews",
      "target": 34962
    }
  ],
  "buffers": [
    {
      "byteLength": 14352,
      "uri": "scene.bin"
    }
  ],
  "materials": [
    {
      "doubleSided": true,
      "name": "None.001",
      "pbrMetallicRoughness": {
        "metallicFactor": 0.0,
        "roughnessFactor": 0.6
      }
    }
  ],
  "meshes": [
    {
      "name": "Object_0",
      "primitives": [
        {
          "attributes": {
            "NORMAL": 1,
            "POSITION": 0
          },
          "indices": 2,
          "material": 0,
          "mode": 4
        }
      ]
    }
  ],
  "nodes": [
    {
      "children": [
        1
      ],
      "matrix": [
        1.0,
        0.0,
        0.0,
        0.0,
        0.0,
        2.220446049250313e-16,
        -1.0,
        0.0,
        0.0,
        1.0,
        2.220446049250313e-16,
        0.0,
        0.0,
        0.0,
        0.0,
        1.0
      ],
      "name": "Sketchfab_model"
    },
    {
      "children": [
        2
      ],
      "name": "212cf1eba657450cbf72367fd798e0c5.obj.cleaner.materialmerger.gles"
    },
    {
      "mesh": 0,
      "name": "Object_2"
    }
  ],
  "scene": 0,
  "scenes": [
    {
      "name": "Sketchfab_Scene",
      "nodes": [
        0
      ]
    }
  ]
}
